<svg width="24" height="24" viewBox="0 0 24 24" fill="none" xmlns="http://www.w3.org/2000/svg">
<path fill-rule="evenodd" clip-rule="evenodd" d="M7.42913 5.14286C7.27758 5.14286 7.13223 5.20306 7.02507 5.31022C6.9179 5.41739 6.8577 5.56273 6.8577 5.71429V8C6.8577 8.15155 6.9179 8.2969 7.02507 8.40406C7.13223 8.51122 7.27758 8.57143 7.42913 8.57143C7.58068 8.57143 7.72603 8.51122 7.83319 8.40406C7.94035 8.2969 8.00056 8.15155 8.00056 8V5.71429C8.00056 5.56273 7.94035 5.41739 7.83319 5.31022C7.72603 5.20306 7.58068 5.14286 7.42913 5.14286ZM7.42913 4C7.88379 4 8.31982 4.18061 8.64131 4.5021C8.9628 4.82359 9.14342 5.25963 9.14342 5.71429V8C9.14342 8.45466 8.9628 8.89069 8.64131 9.21218C8.31982 9.53367 7.88379 9.71428 7.42913 9.71428C6.97447 9.71428 6.53844 9.53367 6.21695 9.21218C5.89546 8.89069 5.71484 8.45466 5.71484 8V5.71429C5.71484 5.25963 5.89546 4.82359 6.21695 4.5021C6.53844 4.18061 6.97447 4 7.42913 4Z" fill="#303030"/>
<path fill-rule="evenodd" clip-rule="evenodd" d="M8 6.8572C8 6.5416 8.25584 6.28577 8.57143 6.28577H21.1429C21.4585 6.28577 21.7143 6.5416 21.7143 6.8572C21.7143 7.17279 21.4585 7.42862 21.1429 7.42862H8.57143C8.25584 7.42862 8 7.17279 8 6.8572Z" fill="#303030"/>
<path fill-rule="evenodd" clip-rule="evenodd" d="M2.28613 6.8572C2.28613 6.5416 2.54197 6.28577 2.85756 6.28577H6.28613C6.60172 6.28577 6.85756 6.5416 6.85756 6.8572C6.85756 7.17279 6.60172 7.42862 6.28613 7.42862H2.85756C2.54197 7.42862 2.28613 7.17279 2.28613 6.8572Z" fill="#303030"/>
<path fill-rule="evenodd" clip-rule="evenodd" d="M7.42913 16.5714C7.27758 16.5714 7.13223 16.6316 7.02507 16.7388C6.9179 16.846 6.8577 16.9913 6.8577 17.1429V19.4286C6.8577 19.5801 6.91791 19.7255 7.02507 19.8327C7.13223 19.9398 7.27758 20 7.42913 20C7.58068 20 7.72603 19.9398 7.83319 19.8327C7.94035 19.7255 8.00056 19.5801 8.00056 19.4286V17.1429C8.00056 16.9913 7.94035 16.846 7.83319 16.7388C7.72603 16.6316 7.58068 16.5714 7.42913 16.5714ZM6.21695 15.9307C6.53844 15.6092 6.97447 15.4286 7.42913 15.4286C7.88379 15.4286 8.31982 15.6092 8.64131 15.9307C8.9628 16.2522 9.14342 16.6882 9.14342 17.1429V19.4286C9.14342 19.8832 8.9628 20.3193 8.64131 20.6408C8.31982 20.9623 7.88379 21.1429 7.42913 21.1429C6.97447 21.1429 6.53844 20.9623 6.21695 20.6408C5.89546 20.3193 5.71484 19.8832 5.71484 19.4286V17.1429C5.71484 16.6882 5.89546 16.2522 6.21695 15.9307Z" fill="#303030"/>
<path fill-rule="evenodd" clip-rule="evenodd" d="M8 18.2857C8 17.9701 8.25584 17.7142 8.57143 17.7142H21.1429C21.4585 17.7142 21.7143 17.9701 21.7143 18.2857C21.7143 18.6013 21.4585 18.8571 21.1429 18.8571H8.57143C8.25584 18.8571 8 18.6013 8 18.2857Z" fill="#303030"/>
<path fill-rule="evenodd" clip-rule="evenodd" d="M2.28613 18.2857C2.28613 17.9701 2.54197 17.7142 2.85756 17.7142H6.28613C6.60172 17.7142 6.85756 17.9701 6.85756 18.2857C6.85756 18.6013 6.60172 18.8571 6.28613 18.8571H2.85756C2.54197 18.8571 2.28613 18.6013 2.28613 18.2857Z" fill="#303030"/>
<path fill-rule="evenodd" clip-rule="evenodd" d="M16.5717 10.8571C16.4202 10.8571 16.2748 10.9173 16.1676 11.0245C16.0605 11.1316 16.0003 11.277 16.0003 11.4285V13.7142C16.0003 13.8658 16.0605 14.0111 16.1676 14.1183C16.2748 14.2255 16.4202 14.2857 16.5717 14.2857C16.7233 14.2857 16.8686 14.2255 16.9758 14.1183C17.0829 14.0111 17.1431 13.8658 17.1431 13.7142V11.4285C17.1431 11.277 17.0829 11.1316 16.9758 11.0245C16.8686 10.9173 16.7233 10.8571 16.5717 10.8571ZM16.5717 9.71423C17.0264 9.71423 17.4624 9.89485 17.7839 10.2163C18.1054 10.5378 18.286 10.9739 18.286 11.4285V13.7142C18.286 14.1689 18.1054 14.6049 17.7839 14.9264C17.4624 15.2479 17.0264 15.4285 16.5717 15.4285C16.1171 15.4285 15.681 15.2479 15.3595 14.9264C15.038 14.6049 14.8574 14.1689 14.8574 13.7142V11.4285C14.8574 10.9739 15.038 10.5378 15.3595 10.2163C15.681 9.89485 16.1171 9.71423 16.5717 9.71423Z" fill="#303030"/>
<path fill-rule="evenodd" clip-rule="evenodd" d="M2.28613 12.5714C2.28613 12.2558 2.54197 12 2.85756 12H15.429C15.7446 12 16.0004 12.2558 16.0004 12.5714C16.0004 12.887 15.7446 13.1429 15.429 13.1429H2.85756C2.54197 13.1429 2.28613 12.887 2.28613 12.5714Z" fill="#303030"/>
<path fill-rule="evenodd" clip-rule="evenodd" d="M17.1436 12.5714C17.1436 12.2558 17.3994 12 17.715 12H21.1436C21.4591 12 21.715 12.2558 21.715 12.5714C21.715 12.887 21.4591 13.1429 21.1436 13.1429H17.715C17.3994 13.1429 17.1436 12.887 17.1436 12.5714Z" fill="#303030"/>
</svg>
