<svg width="130" height="31" viewBox="0 0 130 31" fill="none" xmlns="http://www.w3.org/2000/svg">
<g clip-path="url(#clip0_1003_4180)">
<path d="M14.9996 0.987061C7.04661 0.987061 0.599609 7.43406 0.599609 15.3871C0.599609 23.3401 7.04661 29.7871 14.9996 29.7871C22.9526 29.7871 29.3996 23.3401 29.3996 15.3871C29.3996 7.43406 22.9526 0.987061 14.9996 0.987061ZM18.4106 10.9381H16.2461C15.9896 10.9381 15.7046 11.2756 15.7046 11.7241V13.2871H18.4121L18.0026 15.5161H15.7046V22.2076H13.1501V15.5161H10.8326V13.2871H13.1501V11.9761C13.1501 10.0951 14.4551 8.56656 16.2461 8.56656H18.4106V10.9381Z" fill="white"/>
</g>
<g clip-path="url(#clip1_1003_4180)">
<path d="M115 0.987061C107.047 0.987061 100.6 7.43406 100.6 15.3871C100.6 23.3401 107.047 29.7871 115 29.7871C122.953 29.7871 129.4 23.3401 129.4 15.3871C129.4 7.43406 122.953 0.987061 115 0.987061ZM120.857 12.7831C120.863 12.9061 120.865 13.0291 120.865 13.1491C120.865 16.8991 118.013 21.2206 112.796 21.2206C111.255 21.2231 109.745 20.7804 108.449 19.9456C108.67 19.9726 108.896 19.9831 109.126 19.9831C110.455 19.9831 111.677 19.5316 112.648 18.7696C112.056 18.7579 111.483 18.5621 111.008 18.2093C110.533 17.8566 110.18 17.3644 109.999 16.8016C110.423 16.8823 110.861 16.8654 111.278 16.7521C110.636 16.6223 110.059 16.2744 109.644 15.7676C109.229 15.2607 109.003 14.626 109.003 13.9711V13.9366C109.385 14.1481 109.823 14.2771 110.288 14.2921C109.686 13.8915 109.26 13.2761 109.097 12.5718C108.934 11.8675 109.046 11.1274 109.411 10.5031C110.123 11.3791 111.012 12.0957 112.018 12.6065C113.025 13.1174 114.128 13.4111 115.256 13.4686C115.113 12.86 115.174 12.2212 115.432 11.6513C115.689 11.0815 116.127 10.6125 116.678 10.3175C117.229 10.0224 117.863 9.91765 118.479 10.0196C119.096 10.1215 119.662 10.4243 120.089 10.8811C120.724 10.7555 121.333 10.5226 121.889 10.1926C121.678 10.8498 121.235 11.4078 120.643 11.7631C121.205 11.6953 121.754 11.5442 122.272 11.3146C121.891 11.8844 121.412 12.3817 120.857 12.7831Z" fill="white"/>
</g>
<g clip-path="url(#clip2_1003_4180)">
<path d="M69.4996 15.3871C69.4996 16.5805 69.0255 17.7251 68.1816 18.569C67.3377 19.413 66.1931 19.8871 64.9996 19.8871C63.8061 19.8871 62.6615 19.413 61.8176 18.569C60.9737 17.7251 60.4996 16.5805 60.4996 15.3871C60.4996 15.1306 60.5266 14.8801 60.5731 14.6371H58.9996V20.6326C58.9996 21.0496 59.3371 21.3871 59.7541 21.3871H70.2466C70.4465 21.3867 70.638 21.307 70.7792 21.1655C70.9203 21.0241 70.9996 20.8324 70.9996 20.6326V14.6371H69.4261C69.4726 14.8801 69.4996 15.1306 69.4996 15.3871ZM64.9996 18.3871C65.3937 18.387 65.7839 18.3092 66.1479 18.1584C66.5119 18.0075 66.8427 17.7863 67.1212 17.5076C67.3998 17.2289 67.6208 16.8981 67.7715 16.534C67.9222 16.1698 67.9997 15.7796 67.9996 15.3856C67.9995 14.9915 67.9218 14.6013 67.7709 14.2373C67.62 13.8733 67.3989 13.5425 67.1202 13.2639C66.8415 12.9854 66.5106 12.7644 66.1465 12.6137C65.7824 12.463 65.3922 12.3855 64.9981 12.3856C64.2023 12.3858 63.4391 12.7021 62.8765 13.265C62.3139 13.8279 61.9979 14.5912 61.9981 15.3871C61.9983 16.1829 62.3147 16.9461 62.8775 17.5087C63.4404 18.0713 64.2038 18.3873 64.9996 18.3871ZM68.5996 12.2371H70.3981C70.5176 12.2371 70.6322 12.1897 70.7168 12.1053C70.8015 12.021 70.8492 11.9065 70.8496 11.7871V9.98856C70.8496 9.86882 70.802 9.75397 70.7174 9.6693C70.6327 9.58463 70.5179 9.53706 70.3981 9.53706H68.5996C68.4799 9.53706 68.365 9.58463 68.2804 9.6693C68.1957 9.75397 68.1481 9.86882 68.1481 9.98856V11.7871C68.1496 12.0346 68.3521 12.2371 68.5996 12.2371ZM64.9996 0.987061C61.1805 0.987061 57.5178 2.5042 54.8173 5.20472C52.1167 7.90525 50.5996 11.5679 50.5996 15.3871C50.5996 19.2062 52.1167 22.8689 54.8173 25.5694C57.5178 28.2699 61.1805 29.7871 64.9996 29.7871C66.8906 29.7871 68.7632 29.4146 70.5103 28.6909C72.2573 27.9673 73.8448 26.9066 75.182 25.5694C76.5191 24.2322 77.5798 22.6448 78.3035 20.8977C79.0271 19.1506 79.3996 17.2781 79.3996 15.3871C79.3996 13.496 79.0271 11.6235 78.3035 9.87642C77.5798 8.12933 76.5191 6.54189 75.182 5.20472C73.8448 3.86756 72.2573 2.80686 70.5103 2.0832C68.7632 1.35953 66.8906 0.987061 64.9996 0.987061ZM72.4996 21.2206C72.4996 22.1371 71.7496 22.8871 70.8331 22.8871H59.1661C58.2496 22.8871 57.4996 22.1371 57.4996 21.2206V9.55356C57.4996 8.63706 58.2496 7.88706 59.1661 7.88706H70.8331C71.7496 7.88706 72.4996 8.63706 72.4996 9.55356V21.2206Z" fill="white"/>
</g>
<defs>
<clipPath id="clip0_1003_4180">
<rect width="30" height="30" fill="white" transform="translate(0 0.386963)"/>
</clipPath>
<clipPath id="clip1_1003_4180">
<rect width="30" height="30" fill="white" transform="translate(100 0.386963)"/>
</clipPath>
<clipPath id="clip2_1003_4180">
<rect width="30" height="30" fill="white" transform="translate(50 0.386963)"/>
</clipPath>
</defs>
</svg>
