<svg width="84" height="82" viewBox="0 0 84 82" fill="none" xmlns="http://www.w3.org/2000/svg">
<path d="M75.875 13.0018H7.625C6.17305 13.0018 5 14.119 5 15.5018V65.5018C5 66.8847 6.17305 68.0018 7.625 68.0018H75.875C77.327 68.0018 78.5 66.8847 78.5 65.5018V15.5018C78.5 14.119 77.327 13.0018 75.875 13.0018ZM72.5938 21.6581V62.3768H10.9062V21.6581L8.64219 19.9784L11.866 16.0331L15.377 18.6347H68.1312L71.6422 16.0331L74.866 19.9784L72.5938 21.6581V21.6581ZM68.1312 18.6268L41.75 38.1581L15.3687 18.6268L11.8578 16.0253L8.63398 19.9706L10.898 21.6503L38.9199 42.4003C39.7258 42.9965 40.7172 43.3202 41.7377 43.3202C42.7582 43.3202 43.7496 42.9965 44.5555 42.4003L72.5938 21.6581L74.8578 19.9784L71.634 16.0331L68.1312 18.6268Z" fill="#FCEE21"/>
</svg>
