<svg width="74" height="105" viewBox="0 0 74 105" fill="none" xmlns="http://www.w3.org/2000/svg">
<path d="M45.039 37.809H51.7057C51.7057 20.709 38.7957 7.81236 21.6724 7.81236V14.479C35.2124 14.479 45.039 24.289 45.039 37.809Z" fill="#FCEE21"/>
<path d="M40.3343 53.858C47.3443 53.858 50.3343 56.848 50.3343 63.858H57.0009C57.0009 53.108 51.0843 47.1913 40.3343 47.1913V53.858ZM51.7409 72.0013C51.1004 71.4192 50.2588 71.1087 49.3936 71.1354C48.5285 71.1622 47.7076 71.5241 47.1043 72.1447L39.1276 80.348C37.2076 79.9813 33.3476 78.778 29.3743 74.8147C25.4009 70.838 24.1976 66.968 23.8409 65.0613L32.0376 57.0813C32.659 56.4784 33.0214 55.6574 33.0481 54.792C33.0749 53.9266 32.7639 53.0848 32.1809 52.4447L19.8643 38.9013C19.2811 38.2592 18.4705 37.8697 17.6048 37.8155C16.739 37.7614 15.8863 38.0469 15.2276 38.6113L7.99427 44.8147C7.41798 45.393 7.07401 46.1628 7.02761 46.978C6.97761 47.8113 6.02427 67.5513 21.3309 82.8647C34.6843 96.2147 51.4109 97.1913 56.0176 97.1913C56.6909 97.1913 57.1043 97.1713 57.2143 97.1647C58.0293 97.119 58.7987 96.7735 59.3743 96.1947L65.5743 88.958C66.1392 88.2998 66.4252 87.4472 66.3717 86.5815C66.3182 85.7158 65.9293 84.905 65.2876 84.3213L51.7409 72.0013V72.0013Z" fill="#FCEE21"/>
</svg>
