<svg width="1572" height="80" viewBox="0 0 1572 80" fill="none" xmlns="http://www.w3.org/2000/svg">
<path fill-rule="evenodd" clip-rule="evenodd" d="M30 40.2233C30 60.11 44.4433 76.6467 63.3333 80V51.11H53.3333V40H63.3333V31.11C63.3333 21.11 69.7767 15.5567 78.89 15.5567C81.7767 15.5567 84.89 16 87.7767 16.4433V26.6667H82.6667C77.7767 26.6667 76.6667 29.11 76.6667 32.2233V40H87.3333L85.5567 51.11H76.6667V80C95.5567 76.6467 110 60.1133 110 40.2233C110 18.1 92 0 70 0C48 0 30 18.1 30 40.2233Z" fill="#DCDE9F"/>
<path fill-rule="evenodd" clip-rule="evenodd" d="M293.55 3.55331C297.46 3.37331 298.707 3.33331 308.667 3.33331C318.627 3.33331 319.873 3.37665 323.78 3.55331C327.687 3.72998 330.353 4.35331 332.687 5.25665C335.13 6.17998 337.347 7.62331 339.18 9.48998C341.047 11.32 342.487 13.5333 343.407 15.98C344.313 18.3133 344.933 20.98 345.113 24.88C345.293 28.7966 345.333 30.0433 345.333 40C345.333 49.96 345.29 51.2066 345.113 55.1166C344.937 59.0166 344.313 61.6833 343.407 64.0166C342.487 66.4636 341.044 68.6806 339.18 70.5133C337.347 72.38 335.13 73.82 332.687 74.74C330.353 75.6466 327.687 76.2666 323.787 76.4466C319.873 76.6266 318.627 76.6666 308.667 76.6666C298.707 76.6666 297.46 76.6233 293.55 76.4466C289.65 76.27 286.983 75.6466 284.65 74.74C282.203 73.8199 279.986 72.3775 278.153 70.5133C276.288 68.6822 274.844 66.4663 273.923 64.02C273.02 61.6866 272.4 59.02 272.22 55.12C272.04 51.2033 272 49.9566 272 40C272 30.04 272.043 28.7933 272.22 24.8866C272.397 20.98 273.02 18.3133 273.923 15.98C274.846 13.5336 276.29 11.3177 278.157 9.48665C279.987 7.62165 282.202 6.17812 284.647 5.25665C286.98 4.35331 289.647 3.73331 293.547 3.55331H293.55ZM323.483 10.1533C319.617 9.97665 318.457 9.93998 308.667 9.93998C298.877 9.93998 297.717 9.97665 293.85 10.1533C290.273 10.3166 288.333 10.9133 287.04 11.4166C285.33 12.0833 284.107 12.8733 282.823 14.1566C281.607 15.3402 280.671 16.7809 280.083 18.3733C279.58 19.6666 278.983 21.6066 278.82 25.1833C278.643 29.05 278.607 30.21 278.607 40C278.607 49.79 278.643 50.95 278.82 54.8166C278.983 58.3933 279.58 60.3333 280.083 61.6266C280.67 63.2166 281.607 64.66 282.823 65.8433C284.007 67.06 285.45 67.9966 287.04 68.5833C288.333 69.0866 290.273 69.6833 293.85 69.8466C297.717 70.0233 298.873 70.06 308.667 70.06C318.46 70.06 319.617 70.0233 323.483 69.8466C327.06 69.6833 329 69.0866 330.293 68.5833C332.003 67.9166 333.227 67.1266 334.51 65.8433C335.727 64.66 336.663 63.2166 337.25 61.6266C337.753 60.3333 338.35 58.3933 338.513 54.8166C338.69 50.95 338.727 49.79 338.727 40C338.727 30.21 338.69 29.05 338.513 25.1833C338.35 21.6066 337.753 19.6666 337.25 18.3733C336.583 16.6633 335.793 15.44 334.51 14.1566C333.326 12.9402 331.886 12.004 330.293 11.4166C329 10.9133 327.06 10.3166 323.483 10.1533V10.1533ZM303.983 51.3033C306.599 52.3921 309.511 52.539 312.223 51.719C314.935 50.8991 317.278 49.163 318.852 46.8075C320.426 44.4519 321.134 41.6229 320.853 38.8037C320.573 35.9844 319.323 33.3499 317.317 31.35C316.037 30.0716 314.491 29.0927 312.788 28.4838C311.085 27.8749 309.268 27.6512 307.468 27.8287C305.669 28.0062 303.931 28.5806 302.379 29.5104C300.828 30.4403 299.502 31.7025 298.498 33.2061C297.493 34.7098 296.834 36.4176 296.568 38.2065C296.303 39.9954 296.437 41.821 296.962 43.5517C297.486 45.2824 298.388 46.8753 299.602 48.2157C300.817 49.5561 302.313 50.6106 303.983 51.3033ZM295.34 26.6733C297.09 24.9232 299.168 23.535 301.454 22.5878C303.741 21.6407 306.192 21.1532 308.667 21.1532C311.142 21.1532 313.592 21.6407 315.879 22.5878C318.166 23.535 320.243 24.9232 321.993 26.6733C323.743 28.4234 325.132 30.501 326.079 32.7876C327.026 35.0742 327.513 37.525 327.513 40C327.513 42.475 327.026 44.9257 326.079 47.2123C325.132 49.4989 323.743 51.5766 321.993 53.3266C318.459 56.8611 313.665 58.8467 308.667 58.8467C303.668 58.8467 298.874 56.8611 295.34 53.3266C291.806 49.7922 289.82 44.9984 289.82 40C289.82 35.0015 291.806 30.2078 295.34 26.6733V26.6733ZM331.693 23.96C332.127 23.5509 332.474 23.0589 332.714 22.5132C332.954 21.9675 333.083 21.3792 333.091 20.7831C333.1 20.1869 332.989 19.5951 332.765 19.0427C332.541 18.4902 332.208 17.9883 331.787 17.5668C331.365 17.1452 330.863 16.8125 330.311 16.5884C329.758 16.3642 329.166 16.2532 328.57 16.2619C327.974 16.2706 327.386 16.3988 326.84 16.639C326.294 16.8791 325.802 17.2263 325.393 17.66C324.598 18.5034 324.162 19.6237 324.179 20.7831C324.196 21.9424 324.664 23.0496 325.484 23.8695C326.304 24.6893 327.411 25.1574 328.57 25.1743C329.73 25.1912 330.85 24.7556 331.693 23.96V23.96Z" fill="#DCDE9F"/>
<path d="M586.143 16.4567C583.36 17.69 580.37 18.5233 577.227 18.9C580.47 16.9593 582.897 13.9049 584.053 10.3067C581.006 12.1166 577.671 13.3906 574.193 14.0733C571.855 11.5762 568.757 9.92108 565.381 9.36491C562.005 8.80873 558.54 9.38263 555.524 10.9975C552.508 12.6124 550.109 15.1779 548.701 18.2957C547.292 21.4135 546.952 24.9092 547.733 28.24C541.559 27.93 535.519 26.3252 530.005 23.5297C524.491 20.7342 519.626 16.8105 515.727 12.0133C514.393 14.3133 513.627 16.98 513.627 19.82C513.625 22.3766 514.255 24.8941 515.46 27.1491C516.665 29.4041 518.407 31.3268 520.533 32.7467C518.068 32.6682 515.656 32.0019 513.5 30.8033V31.0033C513.5 34.5891 514.74 38.0646 517.011 40.84C519.281 43.6154 522.442 45.5198 525.957 46.23C523.669 46.849 521.271 46.9402 518.943 46.4967C519.935 49.582 521.867 52.2801 524.468 54.2131C527.069 56.1461 530.21 57.2173 533.45 57.2767C527.95 61.5947 521.156 63.9369 514.163 63.9266C512.925 63.927 511.687 63.8546 510.457 63.71C517.555 68.2739 525.818 70.6961 534.257 70.6866C562.823 70.6866 578.44 47.0267 578.44 26.5067C578.44 25.84 578.423 25.1667 578.393 24.5C581.431 22.3032 584.053 19.583 586.137 16.4667L586.143 16.4567V16.4567Z" fill="#DCDE9F"/>
<path fill-rule="evenodd" clip-rule="evenodd" d="M749.333 9.45999C749.333 7.8351 749.979 6.27675 751.128 5.12778C752.277 3.97881 753.835 3.33332 755.46 3.33332H816.533C817.339 3.33201 818.136 3.48953 818.88 3.79688C819.625 4.10422 820.301 4.55535 820.871 5.12444C821.44 5.69353 821.892 6.3694 822.2 7.11335C822.509 7.85731 822.667 8.65474 822.667 9.45999V70.5333C822.667 71.3387 822.51 72.1364 822.202 72.8807C821.894 73.625 821.443 74.3014 820.873 74.871C820.304 75.4407 819.628 75.8925 818.884 76.2006C818.14 76.5087 817.342 76.6671 816.537 76.6667H755.46C754.655 76.6667 753.858 76.5081 753.115 76.2C752.371 75.8919 751.695 75.4403 751.127 74.871C750.558 74.3017 750.106 73.626 749.799 72.8822C749.491 72.1385 749.333 71.3415 749.333 70.5366V9.45999ZM778.36 31.2933H788.29V36.28C789.723 33.4133 793.39 30.8333 798.9 30.8333C809.463 30.8333 811.967 36.5433 811.967 47.02V66.4266H801.277V49.4067C801.277 43.44 799.843 40.0733 796.203 40.0733C791.153 40.0733 789.053 43.7033 789.053 49.4067V66.4266H778.36V31.2933ZM760.027 65.97H770.72V30.8333H760.027V65.9667V65.97ZM772.25 19.3733C772.27 20.2889 772.107 21.1993 771.771 22.051C771.434 22.9028 770.931 23.6788 770.291 24.3334C769.65 24.9881 768.886 25.5082 768.041 25.8633C767.197 26.2185 766.291 26.4014 765.375 26.4014C764.459 26.4014 763.553 26.2185 762.708 25.8633C761.864 25.5082 761.1 24.9881 760.459 24.3334C759.819 23.6788 759.316 22.9028 758.979 22.051C758.643 21.1993 758.48 20.2889 758.5 19.3733C758.539 17.5762 759.281 15.866 760.566 14.6089C761.851 13.3519 763.577 12.648 765.375 12.648C767.173 12.648 768.899 13.3519 770.184 14.6089C771.469 15.866 772.21 17.5762 772.25 19.3733V19.3733Z" fill="#DCDE9F"/>
<g clip-path="url(#clip0_213_18)">
<path d="M1063 21.69C1062.55 20.0741 1061.67 18.6112 1060.45 17.4567C1059.19 16.2667 1057.66 15.4155 1055.99 14.9834C1049.73 13.3334 1024.65 13.3334 1024.65 13.3334C1014.19 13.2144 1003.74 13.7376 993.347 14.9C991.674 15.3641 990.142 16.2343 988.887 17.4334C987.654 18.62 986.76 20.0834 986.294 21.6867C985.173 27.7258 984.628 33.8578 984.667 40C984.627 46.1367 985.17 52.2667 986.294 58.3134C986.75 59.91 987.64 61.3667 988.877 62.5434C990.114 63.72 991.654 64.57 993.347 65.02C999.69 66.6667 1024.65 66.6667 1024.65 66.6667C1035.12 66.7858 1045.58 66.2626 1055.99 65.1C1057.66 64.6679 1059.19 63.8167 1060.45 62.6267C1061.66 61.4724 1062.55 60.0093 1063 58.3934C1064.15 52.3565 1064.71 46.222 1064.67 40.0767C1064.75 33.9054 1064.2 27.7419 1063 21.6867V21.69ZM1016.67 51.4134V28.59L1037.54 40.0034L1016.67 51.4134Z" fill="#DCDE9F"/>
</g>
<path fill-rule="evenodd" clip-rule="evenodd" d="M1253.55 3.33331C1251.61 3.33376 1249.74 4.1068 1248.37 5.48237C1246.99 6.85795 1246.22 8.72339 1246.22 10.6683C1246.22 12.6132 1247 14.4783 1248.37 15.8533C1249.75 17.2282 1251.61 18.0004 1253.56 18H1260.89V10.6666C1260.89 8.72227 1260.12 6.85803 1258.74 5.48315C1257.37 4.10826 1255.5 3.33508 1253.56 3.33331H1253.55ZM1253.55 22.89H1234C1232.06 22.89 1230.19 23.6626 1228.81 25.0379C1227.44 26.4131 1226.67 28.2784 1226.67 30.2233C1226.67 32.1682 1227.44 34.0335 1228.81 35.4088C1230.19 36.784 1232.06 37.5566 1234 37.5566H1253.55C1255.5 37.5566 1257.36 36.784 1258.74 35.4088C1260.11 34.0335 1260.89 32.1682 1260.89 30.2233C1260.89 28.2784 1260.11 26.4131 1258.74 25.0379C1257.36 23.6626 1255.5 22.89 1253.55 22.89V22.89ZM1300 30.22C1300 28.2751 1299.23 26.4098 1297.85 25.0345C1296.48 23.6593 1294.61 22.8866 1292.67 22.8866C1290.72 22.8866 1288.86 23.6593 1287.48 25.0345C1286.11 26.4098 1285.33 28.2751 1285.33 30.22V37.5533H1292.67C1294.61 37.5533 1296.48 36.7807 1297.85 35.4054C1299.23 34.0302 1300 32.1649 1300 30.22V30.22ZM1280.44 30.22V10.6666C1280.44 8.72172 1279.67 6.85646 1278.3 5.4812C1276.92 4.10593 1275.06 3.33331 1273.11 3.33331C1271.17 3.33331 1269.3 4.10593 1267.92 5.4812C1266.55 6.85646 1265.78 8.72172 1265.78 10.6666V30.22C1265.78 32.1649 1266.55 34.0302 1267.92 35.4054C1269.3 36.7807 1271.17 37.5533 1273.11 37.5533C1275.06 37.5533 1276.92 36.7807 1278.3 35.4054C1279.67 34.0302 1280.44 32.1649 1280.44 30.22V30.22ZM1273.11 76.6666C1275.06 76.6666 1276.92 75.894 1278.3 74.5188C1279.67 73.1435 1280.44 71.2782 1280.44 69.3333C1280.44 67.3884 1279.67 65.5231 1278.3 64.1479C1276.92 62.7726 1275.06 62 1273.11 62H1265.78V69.3333C1265.78 71.278 1266.55 73.1427 1267.93 74.5178C1269.3 75.8929 1271.17 76.6658 1273.11 76.6666ZM1273.11 57.1066H1292.67C1294.61 57.1066 1296.48 56.334 1297.85 54.9588C1299.23 53.5835 1300 51.7182 1300 49.7733C1300 47.8284 1299.23 45.9631 1297.85 44.5879C1296.48 43.2126 1294.61 42.44 1292.67 42.44H1273.11C1271.17 42.4395 1269.3 43.2117 1267.93 44.5867C1266.55 45.9616 1265.78 47.8267 1265.78 49.7716C1265.78 51.7166 1266.55 53.582 1267.93 54.9576C1269.3 56.3332 1271.17 57.1062 1273.11 57.1066V57.1066ZM1226.67 49.7766C1226.67 51.7216 1227.44 53.5868 1228.81 54.9621C1230.19 56.3374 1232.06 57.11 1234 57.11C1235.95 57.11 1237.81 56.3374 1239.19 54.9621C1240.56 53.5868 1241.33 51.7216 1241.33 49.7766V42.4433H1234C1232.06 42.4433 1230.19 43.2159 1228.81 44.5912C1227.44 45.9665 1226.67 47.8317 1226.67 49.7766V49.7766ZM1246.22 49.7766V69.33C1246.22 71.2749 1247 73.1403 1248.37 74.5159C1249.75 75.8915 1251.61 76.6645 1253.56 76.665C1255.5 76.6654 1257.37 75.8932 1258.74 74.5183C1260.12 73.1433 1260.89 71.2782 1260.89 69.3333V49.78C1260.89 47.8351 1260.12 45.9696 1258.74 44.594C1257.37 43.2185 1255.5 42.4454 1253.56 42.445C1251.61 42.4445 1249.75 43.2167 1248.37 44.5917C1247 45.9666 1246.22 47.8317 1246.22 49.7766V49.7766Z" fill="#DCDE9F"/>
<g clip-path="url(#clip1_213_18)">
<path d="M1529.72 14.9733C1524.62 12.6733 1519.16 10.9733 1513.44 10.0067C1513.39 9.99689 1513.34 10.0032 1513.29 10.0247C1513.24 10.0462 1513.2 10.0818 1513.18 10.1267C1512.48 11.3567 1511.7 12.96 1511.15 14.2267C1505.09 13.3208 1498.92 13.3208 1492.86 14.2267C1492.25 12.8229 1491.56 11.4541 1490.8 10.1267C1490.78 10.0813 1490.74 10.0448 1490.69 10.0222C1490.64 9.99956 1490.59 9.99182 1490.54 9.99999C1484.83 10.9667 1479.36 12.6667 1474.26 14.97C1474.21 14.9884 1474.18 15.0198 1474.15 15.06C1463.78 30.31 1460.93 45.1833 1462.33 59.87C1462.33 59.906 1462.35 59.9408 1462.36 59.9723C1462.38 60.0038 1462.4 60.0314 1462.43 60.0533C1468.49 64.4614 1475.24 67.8194 1482.41 69.9866C1482.46 70.002 1482.51 70.002 1482.56 69.9865C1482.61 69.9711 1482.66 69.9409 1482.69 69.9C1484.23 67.8369 1485.6 65.6481 1486.78 63.3566C1486.79 63.3253 1486.8 63.2908 1486.8 63.2556C1486.81 63.2203 1486.8 63.185 1486.79 63.1521C1486.77 63.1193 1486.75 63.0896 1486.73 63.065C1486.7 63.0405 1486.67 63.0217 1486.64 63.01C1484.49 62.1991 1482.4 61.2205 1480.4 60.0833C1480.36 60.0628 1480.33 60.0337 1480.31 59.9986C1480.29 59.9635 1480.28 59.9235 1480.27 59.8822C1480.27 59.8409 1480.28 59.7996 1480.3 59.7619C1480.31 59.7243 1480.34 59.6916 1480.37 59.6666C1480.79 59.3566 1481.21 59.0333 1481.61 58.71C1481.65 58.6809 1481.69 58.6624 1481.74 58.6565C1481.78 58.6506 1481.83 58.6576 1481.87 58.6766C1494.96 64.5566 1509.14 64.5566 1522.08 58.6766C1522.12 58.6565 1522.17 58.6486 1522.21 58.6539C1522.26 58.6592 1522.3 58.6775 1522.34 58.7066C1522.74 59.0333 1523.16 59.3566 1523.58 59.6666C1523.61 59.6911 1523.64 59.7234 1523.66 59.7607C1523.68 59.7979 1523.68 59.8391 1523.68 59.8804C1523.68 59.9216 1523.67 59.9618 1523.65 59.9972C1523.63 60.0326 1523.6 60.0622 1523.56 60.0833C1521.57 61.23 1519.49 62.2 1517.32 63.0066C1517.28 63.0188 1517.25 63.0379 1517.23 63.0627C1517.2 63.0876 1517.18 63.1176 1517.17 63.1507C1517.16 63.1838 1517.15 63.2193 1517.15 63.2549C1517.15 63.2904 1517.16 63.3251 1517.18 63.3566C1518.38 65.6466 1519.75 67.8266 1521.26 69.8966C1521.29 69.9391 1521.34 69.9709 1521.39 69.9876C1521.44 70.0043 1521.49 70.0051 1521.54 69.99C1528.72 67.8288 1535.49 64.4692 1541.55 60.0533C1541.58 60.0326 1541.6 60.0059 1541.62 59.9748C1541.64 59.9438 1541.65 59.9092 1541.66 59.8733C1543.32 42.8933 1538.86 28.14 1529.83 15.0667C1529.8 15.0242 1529.77 14.9911 1529.72 14.9733ZM1488.73 50.9266C1484.79 50.9266 1481.54 47.3633 1481.54 42.9933C1481.54 38.62 1484.73 35.06 1488.73 35.06C1492.77 35.06 1495.99 38.65 1495.92 42.9933C1495.92 47.3666 1492.74 50.9266 1488.73 50.9266V50.9266ZM1515.32 50.9266C1511.37 50.9266 1508.13 47.3633 1508.13 42.9933C1508.13 38.62 1511.31 35.06 1515.32 35.06C1519.35 35.06 1522.57 38.65 1522.51 42.9933C1522.51 47.3666 1519.35 50.9266 1515.32 50.9266V50.9266Z" fill="#DCDE9F"/>
</g>
<defs>
<clipPath id="clip0_213_18">
<rect width="80" height="80" fill="white" transform="translate(984.667)"/>
</clipPath>
<clipPath id="clip1_213_18">
<rect width="80" height="80" fill="white" transform="translate(1462)"/>
</clipPath>
</defs>
</svg>
