<svg width="835" height="140" viewBox="0 0 835 140" fill="none" xmlns="http://www.w3.org/2000/svg">
<g clip-path="url(#clip0_110_2649)">
<path fill-rule="evenodd" clip-rule="evenodd" d="M77.5 70.2233C77.5 90.11 91.9433 106.647 110.833 110V81.11H100.833V70H110.833V61.11C110.833 51.11 117.277 45.5567 126.39 45.5567C129.277 45.5567 132.39 46 135.277 46.4433V56.6667H130.167C125.277 56.6667 124.167 59.11 124.167 62.2233V70H134.833L133.057 81.11H124.167V110C143.057 106.647 157.5 90.1133 157.5 70.2233C157.5 48.1 139.5 30 117.5 30C95.5 30 77.5 48.1 77.5 70.2233Z" fill="#FCEE21"/>
</g>
<path fill-rule="evenodd" clip-rule="evenodd" d="M202.383 33.5533C206.293 33.3733 207.54 33.3333 217.5 33.3333C227.46 33.3333 228.707 33.3767 232.613 33.5533C236.52 33.73 239.187 34.3533 241.52 35.2567C243.963 36.18 246.18 37.6233 248.013 39.49C249.88 41.32 251.32 43.5333 252.24 45.98C253.147 48.3133 253.767 50.98 253.947 54.88C254.127 58.7967 254.167 60.0433 254.167 70C254.167 79.96 254.123 81.2067 253.947 85.1167C253.77 89.0167 253.147 91.6833 252.24 94.0167C251.32 96.4637 249.878 98.6807 248.013 100.513C246.18 102.38 243.963 103.82 241.52 104.74C239.187 105.647 236.52 106.267 232.62 106.447C228.707 106.627 227.46 106.667 217.5 106.667C207.54 106.667 206.293 106.623 202.383 106.447C198.483 106.27 195.817 105.647 193.483 104.74C191.037 103.82 188.82 102.378 186.987 100.513C185.121 98.6822 183.678 96.4663 182.757 94.02C181.853 91.6867 181.233 89.02 181.053 85.12C180.873 81.2033 180.833 79.9567 180.833 70C180.833 60.04 180.877 58.7933 181.053 54.8867C181.23 50.98 181.853 48.3133 182.757 45.98C183.679 43.5336 185.124 41.3177 186.99 39.4867C188.82 37.6217 191.035 36.1782 193.48 35.2567C195.813 34.3533 198.48 33.7333 202.38 33.5533H202.383ZM232.317 40.1533C228.45 39.9767 227.29 39.94 217.5 39.94C207.71 39.94 206.55 39.9767 202.683 40.1533C199.107 40.3167 197.167 40.9133 195.873 41.4167C194.163 42.0833 192.94 42.8733 191.657 44.1567C190.44 45.3402 189.504 46.7809 188.917 48.3733C188.413 49.6667 187.817 51.6067 187.653 55.1833C187.477 59.05 187.44 60.21 187.44 70C187.44 79.79 187.477 80.95 187.653 84.8167C187.817 88.3933 188.413 90.3333 188.917 91.6267C189.503 93.2167 190.44 94.66 191.657 95.8433C192.84 97.06 194.283 97.9967 195.873 98.5833C197.167 99.0867 199.107 99.6833 202.683 99.8467C206.55 100.023 207.707 100.06 217.5 100.06C227.293 100.06 228.45 100.023 232.317 99.8467C235.893 99.6833 237.833 99.0867 239.127 98.5833C240.837 97.9167 242.06 97.1267 243.343 95.8433C244.56 94.66 245.497 93.2167 246.083 91.6267C246.587 90.3333 247.183 88.3933 247.347 84.8167C247.523 80.95 247.56 79.79 247.56 70C247.56 60.21 247.523 59.05 247.347 55.1833C247.183 51.6067 246.587 49.6667 246.083 48.3733C245.417 46.6633 244.627 45.44 243.343 44.1567C242.16 42.9402 240.719 42.004 239.127 41.4167C237.833 40.9133 235.893 40.3167 232.317 40.1533V40.1533ZM212.817 81.3033C215.432 82.3921 218.345 82.5391 221.057 81.7191C223.768 80.8991 226.111 79.1631 227.686 76.8075C229.26 74.4519 229.967 71.6229 229.687 68.8037C229.407 65.9845 228.157 63.3499 226.15 61.35C224.871 60.0716 223.324 59.0927 221.621 58.4838C219.918 57.8749 218.102 57.6512 216.302 57.8287C214.502 58.0062 212.764 58.5806 211.213 59.5104C209.662 60.4403 208.336 61.7025 207.331 63.2062C206.326 64.7099 205.667 66.4176 205.402 68.2065C205.136 69.9954 205.271 71.821 205.795 73.5517C206.32 75.2825 207.222 76.8754 208.436 78.2157C209.65 79.5561 211.146 80.6106 212.817 81.3033ZM204.173 56.6733C205.924 54.9233 208.001 53.535 210.288 52.5879C212.574 51.6407 215.025 51.1533 217.5 51.1533C219.975 51.1533 222.426 51.6407 224.712 52.5879C226.999 53.535 229.077 54.9233 230.827 56.6733C232.577 58.4234 233.965 60.5011 234.912 62.7877C235.859 65.0743 236.347 67.525 236.347 70C236.347 72.475 235.859 74.9258 234.912 77.2123C233.965 79.4989 232.577 81.5766 230.827 83.3267C227.292 86.8611 222.499 88.8468 217.5 88.8468C212.502 88.8468 207.708 86.8611 204.173 83.3267C200.639 79.7922 198.653 74.9985 198.653 70C198.653 65.0015 200.639 60.2078 204.173 56.6733V56.6733ZM240.527 53.96C240.961 53.5509 241.308 53.0589 241.548 52.5133C241.788 51.9676 241.916 51.3792 241.925 50.7831C241.934 50.187 241.823 49.5952 241.598 49.0427C241.374 48.4903 241.042 47.9884 240.62 47.5668C240.198 47.1452 239.697 46.8125 239.144 46.5884C238.592 46.3643 238 46.2533 237.404 46.262C236.808 46.2706 236.219 46.3989 235.674 46.639C235.128 46.8791 234.636 47.2263 234.227 47.66C233.431 48.5034 232.996 49.6237 233.012 50.7831C233.029 51.9425 233.497 53.0496 234.317 53.8695C235.137 54.6894 236.244 55.1574 237.404 55.1743C238.563 55.1912 239.683 54.7556 240.527 53.96V53.96Z" fill="#FCEE21"/>
<path d="M356.31 46.4567C353.527 47.69 350.537 48.5233 347.394 48.9C350.637 46.9593 353.063 43.9049 354.22 40.3067C351.173 42.1166 347.838 43.3906 344.36 44.0733C342.021 41.5762 338.924 39.9211 335.548 39.3649C332.172 38.8087 328.707 39.3826 325.691 40.9975C322.675 42.6124 320.276 45.1779 318.867 48.2957C317.459 51.4135 317.119 54.9092 317.9 58.24C311.726 57.93 305.686 56.3252 300.172 53.5297C294.658 50.7342 289.793 46.8105 285.894 42.0133C284.56 44.3133 283.794 46.98 283.794 49.82C283.792 52.3766 284.422 54.8941 285.626 57.1491C286.831 59.4041 288.574 61.3268 290.7 62.7467C288.234 62.6682 285.823 62.0019 283.667 60.8033V61.0033C283.667 64.5891 284.907 68.0646 287.177 70.84C289.448 73.6154 292.609 75.5198 296.124 76.23C293.836 76.849 291.438 76.9402 289.11 76.4967C290.102 79.582 292.034 82.2801 294.635 84.2131C297.236 86.1461 300.377 87.2173 303.617 87.2767C298.116 91.5947 291.323 93.9369 284.33 93.9266C283.091 93.927 281.854 93.8546 280.624 93.71C287.722 98.2739 295.985 100.696 304.424 100.687C332.99 100.687 348.607 77.0267 348.607 56.5067C348.607 55.84 348.59 55.1667 348.56 54.5C351.598 52.3032 354.22 49.583 356.304 46.4667L356.31 46.4567V46.4567Z" fill="#FCEE21"/>
<path fill-rule="evenodd" clip-rule="evenodd" d="M380.833 39.46C380.833 37.8351 381.479 36.2768 382.628 35.1278C383.777 33.9788 385.335 33.3333 386.96 33.3333H448.033C448.839 33.332 449.636 33.4895 450.381 33.7969C451.125 34.1042 451.801 34.5554 452.371 35.1244C452.941 35.6935 453.393 36.3694 453.701 37.1134C454.009 37.8573 454.167 38.6547 454.167 39.46V100.533C454.168 101.339 454.01 102.136 453.702 102.881C453.394 103.625 452.943 104.301 452.374 104.871C451.804 105.441 451.128 105.892 450.384 106.201C449.64 106.509 448.842 106.667 448.037 106.667H386.96C386.155 106.667 385.358 106.508 384.615 106.2C383.871 105.892 383.196 105.44 382.627 104.871C382.058 104.302 381.607 103.626 381.299 102.882C380.991 102.139 380.833 101.341 380.833 100.537V39.46ZM409.86 61.2933H419.79V66.28C421.223 63.4133 424.89 60.8333 430.4 60.8333C440.963 60.8333 443.467 66.5433 443.467 77.02V96.4266H432.777V79.4067C432.777 73.44 431.343 70.0733 427.703 70.0733C422.653 70.0733 420.553 73.7033 420.553 79.4067V96.4266H409.86V61.2933ZM391.527 95.97H402.22V60.8333H391.527V95.9667V95.97ZM403.75 49.3733C403.77 50.2889 403.607 51.1993 403.271 52.051C402.935 52.9028 402.431 53.6788 401.791 54.3334C401.151 54.9881 400.386 55.5082 399.542 55.8633C398.698 56.2185 397.791 56.4014 396.875 56.4014C395.959 56.4014 395.053 56.2185 394.209 55.8633C393.365 55.5082 392.6 54.9881 391.959 54.3334C391.319 53.6788 390.816 52.9028 390.479 52.051C390.143 51.1993 389.98 50.2889 390 49.3733C390.04 47.5762 390.781 45.866 392.066 44.6089C393.351 43.3519 395.078 42.648 396.875 42.648C398.673 42.648 400.399 43.3519 401.684 44.6089C402.969 45.866 403.711 47.5762 403.75 49.3733V49.3733Z" fill="#FCEE21"/>
<g clip-path="url(#clip1_110_2649)">
<path d="M555.833 51.69C555.38 50.0741 554.498 48.6112 553.28 47.4567C552.028 46.2667 550.493 45.4155 548.82 44.9833C542.56 43.3333 517.48 43.3333 517.48 43.3333C507.025 43.2144 496.572 43.7376 486.18 44.9C484.507 45.364 482.975 46.2343 481.72 47.4333C480.487 48.62 479.593 50.0833 479.127 51.6867C478.006 57.7258 477.461 63.8578 477.5 70C477.46 76.1367 478.003 82.2667 479.127 88.3133C479.583 89.91 480.473 91.3667 481.71 92.5433C482.947 93.72 484.487 94.57 486.18 95.02C492.523 96.6667 517.48 96.6667 517.48 96.6667C527.949 96.7858 538.415 96.2626 548.82 95.1C550.493 94.6679 552.028 93.8167 553.28 92.6267C554.498 91.4724 555.379 90.0093 555.83 88.3933C556.98 82.3565 557.54 76.222 557.5 70.0767C557.587 63.9053 557.028 57.7419 555.833 51.6867V51.69ZM509.507 81.4133V58.59L530.373 70.0033L509.507 81.4133Z" fill="#FCEE21"/>
</g>
<path fill-rule="evenodd" clip-rule="evenodd" d="M607.72 33.3333C605.775 33.3338 603.91 34.1068 602.535 35.4824C601.16 36.858 600.388 38.7234 600.388 40.6683C600.389 42.6133 601.162 44.4784 602.538 45.8533C603.913 47.2283 605.779 48.0005 607.723 48H615.057V40.6667C615.055 38.7223 614.282 36.8581 612.907 35.4832C611.532 34.1083 609.668 33.3351 607.723 33.3333H607.72ZM607.72 52.89H588.167C586.222 52.89 584.357 53.6626 582.981 55.0379C581.606 56.4132 580.833 58.2784 580.833 60.2233C580.833 62.1683 581.606 64.0335 582.981 65.4088C584.357 66.7841 586.222 67.5567 588.167 67.5567H607.72C609.665 67.5567 611.53 66.7841 612.906 65.4088C614.281 64.0335 615.053 62.1683 615.053 60.2233C615.053 58.2784 614.281 56.4132 612.906 55.0379C611.53 53.6626 609.665 52.89 607.72 52.89V52.89ZM654.167 60.22C654.167 58.2751 653.394 56.4098 652.019 55.0346C650.644 53.6593 648.778 52.8867 646.833 52.8867C644.889 52.8867 643.023 53.6593 641.648 55.0346C640.273 56.4098 639.5 58.2751 639.5 60.22V67.5533H646.833C648.778 67.5533 650.644 66.7807 652.019 65.4055C653.394 64.0302 654.167 62.1649 654.167 60.22V60.22ZM634.61 60.22V40.6667C634.61 38.7218 633.838 36.8565 632.462 35.4812C631.087 34.106 629.222 33.3333 627.277 33.3333C625.332 33.3333 623.467 34.106 622.091 35.4812C620.716 36.8565 619.943 38.7218 619.943 40.6667V60.22C619.943 62.1649 620.716 64.0302 622.091 65.4055C623.467 66.7807 625.332 67.5533 627.277 67.5533C629.222 67.5533 631.087 66.7807 632.462 65.4055C633.838 64.0302 634.61 62.1649 634.61 60.22V60.22ZM627.277 106.667C629.222 106.667 631.087 105.894 632.462 104.519C633.838 103.144 634.61 101.278 634.61 99.3333C634.61 97.3884 633.838 95.5232 632.462 94.1479C631.087 92.7726 629.222 92 627.277 92H619.943V99.3333C619.944 101.278 620.717 103.143 622.092 104.518C623.467 105.893 625.332 106.666 627.277 106.667ZM627.277 87.1067H646.833C648.778 87.1067 650.644 86.3341 652.019 84.9588C653.394 83.5835 654.167 81.7183 654.167 79.7733C654.167 77.8284 653.394 75.9632 652.019 74.5879C650.644 73.2126 648.778 72.44 646.833 72.44H627.28C625.335 72.4396 623.47 73.2118 622.094 74.5867C620.719 75.9617 619.946 77.8268 619.945 79.7717C619.945 81.7166 620.717 83.582 622.092 84.9576C623.467 86.3332 625.332 87.1062 627.277 87.1067V87.1067ZM580.833 79.7767C580.833 81.7216 581.606 83.5869 582.981 84.9621C584.357 86.3374 586.222 87.11 588.167 87.11C590.112 87.11 591.977 86.3374 593.352 84.9621C594.728 83.5869 595.5 81.7216 595.5 79.7767V72.4433H588.167C586.222 72.4433 584.357 73.216 582.981 74.5912C581.606 75.9665 580.833 77.8318 580.833 79.7767V79.7767ZM600.39 79.7767V99.33C600.39 101.275 601.162 103.14 602.537 104.516C603.912 105.892 605.777 106.665 607.722 106.665C609.667 106.665 611.532 105.893 612.908 104.518C614.283 103.143 615.056 101.278 615.057 99.3333V79.78C615.057 77.8351 614.285 75.9696 612.91 74.5941C611.535 73.2185 609.67 72.4454 607.725 72.445C605.78 72.4446 603.915 73.2168 602.539 74.5917C601.164 75.9667 600.391 77.8318 600.39 79.7767V79.7767Z" fill="#FCEE21"/>
<g clip-path="url(#clip2_110_2649)">
<path d="M745.223 44.9733C740.123 42.6733 734.657 40.9733 728.94 40.0067C728.889 39.9969 728.837 40.0032 728.789 40.0247C728.742 40.0462 728.703 40.0818 728.677 40.1267C727.977 41.3567 727.197 42.96 726.65 44.2267C720.587 43.3208 714.423 43.3208 708.36 44.2267C707.751 42.8229 707.065 41.4541 706.303 40.1267C706.278 40.0813 706.239 40.0448 706.192 40.0222C706.145 39.9996 706.092 39.9918 706.04 40C700.327 40.9667 694.86 42.6667 689.757 44.97C689.713 44.9884 689.676 45.0198 689.65 45.06C679.277 60.31 676.433 75.1833 677.83 89.87C677.834 89.906 677.845 89.9408 677.863 89.9723C677.881 90.0038 677.905 90.0314 677.933 90.0533C683.988 94.4614 690.741 97.8194 697.91 99.9866C697.96 100.002 698.014 100.002 698.064 99.9865C698.113 99.9711 698.158 99.9409 698.19 99.9C699.733 97.8369 701.1 95.6481 702.277 93.3566C702.293 93.3253 702.303 93.2908 702.304 93.2556C702.306 93.2203 702.301 93.185 702.288 93.1521C702.275 93.1193 702.255 93.0896 702.229 93.065C702.204 93.0405 702.173 93.0217 702.14 93.01C699.987 92.1991 697.9 91.2205 695.9 90.0833C695.864 90.0628 695.834 90.0337 695.812 89.9986C695.79 89.9635 695.777 89.9235 695.775 89.8822C695.772 89.8409 695.78 89.7996 695.797 89.7619C695.814 89.7243 695.84 89.6916 695.873 89.6666C696.293 89.3566 696.713 89.0333 697.113 88.71C697.149 88.6809 697.193 88.6624 697.239 88.6565C697.285 88.6506 697.331 88.6576 697.373 88.6766C710.463 94.5566 724.64 94.5566 737.577 88.6766C737.619 88.6565 737.666 88.6486 737.713 88.6539C737.759 88.6592 737.803 88.6775 737.84 88.7066C738.24 89.0333 738.657 89.3566 739.08 89.6666C739.113 89.6911 739.14 89.7234 739.158 89.7607C739.176 89.7979 739.184 89.8391 739.182 89.8804C739.18 89.9216 739.168 89.9618 739.147 89.9972C739.125 90.0326 739.096 90.0622 739.06 90.0833C737.067 91.23 734.993 92.2 732.817 93.0066C732.783 93.0188 732.753 93.0379 732.727 93.0627C732.702 93.0876 732.682 93.1176 732.669 93.1507C732.656 93.1838 732.651 93.2193 732.652 93.2549C732.654 93.2904 732.664 93.3251 732.68 93.3566C733.88 95.6466 735.253 97.8266 736.763 99.8966C736.795 99.9391 736.839 99.9709 736.889 99.9876C736.939 100.004 736.993 100.005 737.043 99.99C744.225 97.8288 750.989 94.4692 757.05 90.0533C757.08 90.0326 757.105 90.0059 757.123 89.9748C757.141 89.9438 757.153 89.9092 757.157 89.8733C758.823 72.8933 754.363 58.14 745.327 45.0667C745.305 45.0242 745.268 44.9911 745.223 44.9733ZM704.233 80.9266C700.293 80.9266 697.043 77.3633 697.043 72.9933C697.043 68.62 700.23 65.06 704.233 65.06C708.267 65.06 711.487 68.65 711.423 72.9933C711.423 77.3666 708.237 80.9266 704.233 80.9266V80.9266ZM730.817 80.9266C726.873 80.9266 723.627 77.3633 723.627 72.9933C723.627 68.62 726.81 65.06 730.817 65.06C734.85 65.06 738.07 68.65 738.007 72.9933C738.007 77.3666 734.853 80.9266 730.817 80.9266V80.9266Z" fill="#FCEE21"/>
</g>
<defs>
<clipPath id="clip0_110_2649">
<rect width="80" height="80" fill="white" transform="translate(77.5 30)"/>
</clipPath>
<clipPath id="clip1_110_2649">
<rect width="80" height="80" fill="white" transform="translate(477.5 30)"/>
</clipPath>
<clipPath id="clip2_110_2649">
<rect width="80" height="80" fill="white" transform="translate(677.5 30)"/>
</clipPath>
</defs>
</svg>
